<svg width="92" height="32" viewBox="0 0 92 32" fill="none" xmlns="http://www.w3.org/2000/svg">
<path d="M20.1562 26.0625C18.2292 26.7917 16.0417 27.1562 13.5938 27.1562C5.57292 27.1562 1.5625 23.276 1.5625 15.5156C1.5625 8.17188 5.57292 4.5 13.5938 4.5C16.0417 4.5 18.2292 4.86458 20.1562 5.59375V9.34375C18.2292 8.51042 16.1458 8.09375 13.9062 8.09375C8.54167 8.09375 5.85938 10.5677 5.85938 15.5156C5.85938 20.8802 8.54167 23.5625 13.9062 23.5625C16.1458 23.5625 18.2292 23.1458 20.1562 22.3125V26.0625ZM26.6181 15.7656C26.6181 20.9635 28.9254 23.5625 33.54 23.5625C38.04 23.5625 40.29 20.9635 40.29 15.7656C40.29 10.651 38.04 8.09375 33.54 8.09375C28.9254 8.09375 26.6181 10.651 26.6181 15.7656ZM22.3213 15.8594C22.3213 8.28646 26.0608 4.5 33.54 4.5C40.9046 4.5 44.5869 8.28646 44.5869 15.8594C44.5869 23.3906 40.9046 27.1562 33.54 27.1562C26.3942 27.1562 22.6546 23.3906 22.3213 15.8594ZM49.8456 27H45.5956L55.08 4.65625H59.5331L69.2206 27H64.7675L62.2206 20.9062H54.7988L56.2206 17.3125H60.7206L57.205 8.92188L49.8456 27ZM75.1356 4.65625V23.4062H84.0106V27H70.995V4.65625H75.1356ZM90.3319 23.1719V27H86.1913V23.1719H90.3319Z" fill="#212121"/>
</svg>
